<svg height="512pt" viewBox="0 0 512 512" width="512pt" xmlns="http://www.w3.org/2000/svg"><path d="m5.214844 302.152344c12.128906 33.355468 43.628906 55.730468 79.121094 56.199218l-16.019532 144.175782c-.265625 2.414062.507813 4.824218 2.125 6.632812 1.621094 1.808594 3.933594 2.839844 6.359375 2.839844h102.398438c2.425781 0 4.738281-1.03125 6.359375-2.839844 1.617187-1.808594 2.390625-4.21875 2.125-6.632812l-16.019532-144.175782c46.703126-.585937 84.273438-38.578124 84.335938-85.285156v-8.53125c0-4.714844-3.820312-8.535156-8.535156-8.535156h-61.757813c39.53125-26.757812 62.785157-71.742188 61.757813-119.464844 0-75.285156-53.585938-136.535156-119.464844-136.535156s-119.464844 61.25-119.464844 136.535156c-1.027344 47.722656 22.226563 92.707032 61.757813 119.464844h-61.757813c-4.714844 0-8.535156 3.820312-8.535156 8.535156v8.53125c.0195312 9.757813 1.726562 19.441406 5.042969 28.617188.058593.160156.101562.3125.171875.46875zm81.117187 192.78125 15.175781-136.535156h52.984376l15.175781 136.535156zm-60.730469-358.398438c0-65.878906 45.933594-119.46875 102.398438-119.46875s102.398438 53.589844 102.398438 119.46875c0 65.875-45.933594 119.464844-102.398438 119.464844-5.734375-.042969-11.449219-.644531-17.066406-1.796875v-40.871094c.003906-4.710937 3.820312-8.527343 8.53125-8.53125h8.535156c4.710938.003907 8.527344 3.820313 8.535156 8.53125 0 4.714844 3.820313 8.535157 8.53125 8.535157 4.714844 0 8.535156-3.820313 8.535156-8.535157-.015624-14.128906-11.46875-25.582031-25.601562-25.597656h-8.535156c-14.128906.015625-25.582032 11.46875-25.597656 25.597656v35.699219c-39.707032-16.453125-68.265626-60.601562-68.265626-112.496094zm213.332032 136.53125c-.042969 37.683594-30.582032 68.222656-68.265625 68.265625h-85.335938c-24.355469-.027343-46.851562-13.035156-59.027343-34.132812h33.429687c4.710937 0 8.53125-3.820313 8.53125-8.53125 0-4.714844-3.820313-8.535157-8.53125-8.535157h-40.421875c-1.46875-5.570312-2.222656-11.304687-2.246094-17.066406zm0 0"/><path d="m93.867188 307.199219h8.53125c4.714843 0 8.535156-3.820313 8.535156-8.53125 0-4.714844-3.820313-8.535157-8.535156-8.535157h-8.53125c-4.714844 0-8.535157 3.820313-8.535157 8.535157 0 4.710937 3.820313 8.53125 8.535157 8.53125zm0 0"/><path d="m68.265625 93.867188c2.265625.003906 4.4375-.898438 6.035156-2.5l34.132813-34.132813c2.21875-2.144531 3.105468-5.316406 2.328125-8.300781-.78125-2.984375-3.113281-5.3125-6.097657-6.09375-2.980468-.78125-6.15625.109375-8.296874 2.328125l-34.132813 34.132812c-2.441406 2.441407-3.171875 6.109375-1.851563 9.296875 1.324219 3.1875 4.433594 5.269532 7.882813 5.269532zm0 0"/><path d="m159.632812 57.234375c2.21875-2.144531 3.109376-5.316406 2.328126-8.300781s-3.113282-5.3125-6.09375-6.09375c-2.984376-.78125-6.15625.109375-8.300782 2.328125l-93.867187 93.867187c-2.21875 2.140625-3.105469 5.3125-2.324219 8.296875.777344 2.984375 3.109375 5.3125 6.09375 6.09375s6.15625-.109375 8.296875-2.324219zm0 0"/><path d="m503.464844 298.667969h-8.53125v-8.535157c0-4.710937-3.820313-8.53125-8.535156-8.53125-4.710938 0-8.53125 3.820313-8.53125 8.53125v8.535157h-17.066407v-8.535157c-.015625-14.132812-11.46875-25.582031-25.601562-25.597656h-85.332031c-14.132813.015625-25.585938 11.464844-25.601563 25.597656v8.535157h-17.066406v-8.535157c0-4.710937-3.820313-8.53125-8.53125-8.53125-4.714844 0-8.535157 3.820313-8.535157 8.53125v8.535157h-8.53125c-4.714843 0-8.535156 3.820312-8.535156 8.53125 0 4.714843 3.820313 8.535156 8.535156 8.535156h8.53125v8.53125c0 4.714844 3.820313 8.535156 8.535157 8.535156 4.710937 0 8.53125-3.820312 8.53125-8.535156v-8.53125h17.066406v119.464844c.011719 9.421875 7.648437 17.054687 17.066406 17.066406h68.269531c9.417969-.011719 17.054688-7.644531 17.066407-17.066406v-8.53125h17.066406c9.421875-.011719 17.054687-7.648438 17.066406-17.066407v-93.867187h17.066407v8.53125c0 4.714844 3.820312 8.535156 8.53125 8.535156 4.714843 0 8.535156-3.820312 8.535156-8.535156v-8.53125h8.53125c4.714844 0 8.535156-3.820313 8.535156-8.535156 0-4.710938-3.820312-8.53125-8.535156-8.53125zm-76.796875-8.535157c0-4.710937 3.820312-8.53125 8.53125-8.53125 4.714843 0 8.535156 3.820313 8.535156 8.53125v8.535157h-17.066406zm-17.066407 145.066407h-68.269531v-145.066407c.003907-4.710937 3.824219-8.527343 8.535157-8.53125h61.304687c-1.011719 2.730469-1.542969 5.617188-1.570313 8.53125zm34.132813-25.597657h-17.066406v-93.867187h17.066406zm0 0"/><path d="m494.933594 0h-187.734375c-9.421875.0117188-17.054688 7.644531-17.066407 17.066406v204.800782c.011719 9.421874 7.644532 17.054687 17.066407 17.066406h187.734375c9.421875-.011719 17.054687-7.644532 17.066406-17.066406v-204.800782c-.011719-9.421875-7.644531-17.0546872-17.066406-17.066406zm.003906 170.667969h-85.335938v-153.601563h85.332032zm-102.402344-153.601563v153.601563h-85.335937v-153.601563zm-85.335937 204.800782v-34.132813h187.742187v34.132813zm0 0"/><path d="m366.933594 102.398438h8.53125c4.714844 0 8.535156-3.820313 8.535156-8.53125 0-4.714844-3.820312-8.535157-8.535156-8.535157h-8.53125c-4.714844 0-8.535156 3.820313-8.535156 8.535157 0 4.710937 3.820312 8.53125 8.535156 8.53125zm0 0"/><path d="m426.667969 102.398438h8.53125c4.714843 0 8.535156-3.820313 8.535156-8.53125 0-4.714844-3.820313-8.535157-8.535156-8.535157h-8.53125c-4.714844 0-8.535157 3.820313-8.535157 8.535157 0 4.710937 3.820313 8.53125 8.535157 8.53125zm0 0"/></svg>