<?xml version="1.0"?>
<svg xmlns="http://www.w3.org/2000/svg" viewBox="0 0 64 64" width="512" height="512"><g id="Outline"><g><path d="M61,39a1,1,0,0,0-1,1v6H4V23a1,1,0,0,0-2,0V47a1,1,0,0,0,1,1H7v1a3,3,0,0,0,2.5,2.949V61a1,1,0,0,0,2,0V52h5v9a1,1,0,0,0,2,0V51.847A.985.985,0,0,0,19,51a1,1,0,0,0-1-1H10a1,1,0,0,1-1-1V48H43v1a3,3,0,0,0,2.5,2.949V61a1,1,0,0,0,2,0V52h5v9a1,1,0,0,0,2,0V51.949A3,3,0,0,0,57,49V48h4a1,1,0,0,0,1-1V40A1,1,0,0,0,61,39ZM55,49a1,1,0,0,1-1,1H46a1,1,0,0,1-1-1V48H55Z"/><path d="M61,12H57V10a1.006,1.006,0,0,0-.168-.555L55.868,8H56a1,1,0,0,0,1-1V5a3,3,0,0,0-3-3H52a3,3,0,0,0-3,3V7a1,1,0,0,0,1,1h3.465L55,10.3V12H43V10a1.006,1.006,0,0,0-.168-.555L41.868,8H42a1,1,0,0,0,1-1V5a3,3,0,0,0-3-3H38a3,3,0,0,0-3,3V7a1,1,0,0,0,1,1h3.465L41,10.3V12H27V10a1.006,1.006,0,0,0-.168-.555L25.868,8H26a1,1,0,0,0,1-1V5a3,3,0,0,0-3-3H22a3,3,0,0,0-3,3V7a1,1,0,0,0,1,1h3.465L25,10.3V12H13V10a1.006,1.006,0,0,0-.168-.555L11.868,8H12a1,1,0,0,0,1-1V5a3,3,0,0,0-3-3H8A3,3,0,0,0,5,5V7A1,1,0,0,0,6,8H9.465L11,10.3V12H3a1,1,0,0,0-1,1v6a1,1,0,0,0,2,0V14H60V36a1,1,0,0,0,2,0V13A1,1,0,0,0,61,12ZM51,5a1,1,0,0,1,1-1h2a1,1,0,0,1,1,1V6H51ZM37,5a1,1,0,0,1,1-1h2a1,1,0,0,1,1,1V6H37ZM21,5a1,1,0,0,1,1-1h2a1,1,0,0,1,1,1V6H21ZM7,5A1,1,0,0,1,8,4h2a1,1,0,0,1,1,1V6H7Z"/><path d="M11,28H33.5a1,1,0,0,0,.51-1.86l-13.5-8a1,1,0,0,0-1.02,0l-13.5,8A1,1,0,0,0,6.5,28H9V43a1,1,0,0,0,1,1H30a1,1,0,0,0,1-1V31a1,1,0,0,0-2,0V42H25V36a4,4,0,0,0-4-4H19a4,4,0,0,0-4,4v6H11Zm9-7.837L29.851,26h-19.7ZM17,36a2,2,0,0,1,2-2h2a2,2,0,0,1,2,2v6H17Z"/><path d="M52,29a1.5,1.5,0,0,1,1.5,1.5,1,1,0,0,0,2,0A3.494,3.494,0,0,0,53,27.163V26a1,1,0,0,0-2,0v1.163A3.49,3.49,0,0,0,52,34a1.5,1.5,0,1,1-1.5,1.5,1,1,0,0,0-2,0A3.494,3.494,0,0,0,51,38.837V40a1,1,0,0,0,2,0V38.837A3.49,3.49,0,0,0,52,32a1.5,1.5,0,0,1,0-3Z"/><path d="M56,19a1,1,0,0,0,0-2H38a1,1,0,0,0-1,1v4a1,1,0,0,0,1,1H56a1,1,0,0,0,0-2H39V19Z"/><path d="M37,30a1,1,0,0,0,1,1h6a1,1,0,0,0,1-1V26a1,1,0,0,0-1-1H38a1,1,0,0,0-1,1Zm2-3h4v2H39Z"/><path d="M37,38a1,1,0,0,0,1,1h6a1,1,0,0,0,1-1V34a1,1,0,0,0-1-1H38a1,1,0,0,0-1,1Zm2-3h4v2H39Z"/><path d="M38,43h9a1,1,0,0,0,0-2H38a1,1,0,0,0,0,2Z"/></g></g></svg>
