<svg height="511pt" viewBox="0 -40 511.99945 511" width="511pt" xmlns="http://www.w3.org/2000/svg"><path d="m11.5 143.816406h50.769531c6.34375 0 11.503907-5.160156 11.503907-11.503906v-58.082031c0-6.339844-5.160157-11.5-11.503907-11.5h-50.769531c-6.339844 0-11.5 5.160156-11.5 11.5v58.082031c0 6.34375 5.160156 11.503906 11.5 11.503906zm3.503906-66.085937h43.765625v51.082031h-43.765625zm0 0"/><path d="m92.082031 143.816406h109.371094c6.34375 0 11.503906-5.160156 11.503906-11.503906v-58.082031c0-6.339844-5.160156-11.5-11.503906-11.5h-109.371094c-6.34375 0-11.5 5.160156-11.5 11.5v58.082031c0 6.34375 5.160157 11.503906 11.5 11.503906zm3.5-66.085937h102.371094v51.082031h-102.371094zm0 0"/><path d="m231.265625 143.816406h28.792969c6.34375 0 11.503906-5.160156 11.503906-11.503906v-14.039062c0-4.140626-3.359375-7.5-7.503906-7.5-4.144532 0-7.5 3.359374-7.5 7.5v10.539062h-21.792969v-51.082031h21.792969v10.539062c0 4.144531 3.355468 7.5 7.5 7.5 4.144531 0 7.503906-3.355469 7.503906-7.5v-14.039062c0-6.339844-5.160156-11.5-11.503906-11.5h-28.792969c-6.34375 0-11.503906 5.160156-11.503906 11.5v58.082031c0 6.34375 5.160156 11.503906 11.503906 11.503906zm0 0"/><path d="m11.5 231.875h109.382812c6.34375 0 11.5-5.15625 11.5-11.5v-58.085938c0-6.339843-5.15625-11.5-11.5-11.5h-109.382812c-6.339844 0-11.5 5.160157-11.5 11.5v58.085938c0 6.34375 5.160156 11.5 11.5 11.5zm3.503906-66.085938h102.378906v51.085938h-102.378906zm0 0"/><path d="m271.5625 220.375v-58.085938c0-6.339843-5.160156-11.5-11.503906-11.5h-109.371094c-6.34375 0-11.503906 5.160157-11.503906 11.5v58.085938c0 6.339844 5.160156 11.5 11.503906 11.5h109.371094c6.339844 0 11.503906-5.160156 11.503906-11.5zm-15.003906-3.5h-102.371094v-51.085938h102.371094zm0 0"/><path d="m11.5 319.9375h50.769531c6.34375 0 11.503907-5.160156 11.503907-11.503906v-58.082032c0-6.34375-5.160157-11.503906-11.503907-11.503906h-50.769531c-6.339844 0-11.5 5.160156-11.5 11.503906v58.082032c0 6.339844 5.160156 11.503906 11.5 11.503906zm3.503906-66.085938h43.765625v51.082032h-43.765625zm0 0"/><path d="m92.082031 238.847656c-6.34375 0-11.5 5.160156-11.5 11.5v58.085938c0 6.339844 5.15625 11.5 11.5 11.5h109.371094c6.34375 0 11.503906-5.160156 11.503906-11.5v-58.085938c0-6.339844-5.160156-11.5-11.503906-11.5zm105.871094 66.085938h-102.371094v-51.082032h102.371094zm0 0"/><path d="m231.265625 319.9375h109.371094c6.339843 0 11.5-5.160156 11.5-11.503906v-58.082032c0-6.34375-5.160157-11.503906-11.5-11.503906h-109.371094c-6.34375 0-11.503906 5.160156-11.503906 11.503906v58.082032c0 6.339844 5.160156 11.503906 11.503906 11.503906zm3.5-66.089844h102.371094v51.085938h-102.371094zm0 0"/><path d="m120.882812 326.90625h-109.382812c-6.339844 0-11.5 5.160156-11.5 11.503906v58.082032c0 6.34375 5.160156 11.503906 11.5 11.503906h19.355469c4.144531 0 7.5-3.359375 7.5-7.503906 0-4.140626-3.355469-7.5-7.5-7.5h-15.851563v-51.082032h102.378906v51.082032h-56.523437c-4.144531 0-7.5 3.359374-7.5 7.5 0 4.144531 3.355469 7.503906 7.5 7.503906h60.023437c6.34375 0 11.503907-5.160156 11.503907-11.503906v-58.082032c-.003907-6.34375-5.160157-11.503906-11.503907-11.503906zm0 0"/><path d="m260.058594 326.90625h-109.371094c-6.34375 0-11.503906 5.160156-11.503906 11.503906v58.082032c0 6.34375 5.160156 11.503906 11.503906 11.503906h109.371094c6.339844 0 11.5-5.160156 11.5-11.503906v-58.082032c.003906-6.34375-5.160156-11.503906-11.5-11.503906zm-3.5 66.085938h-102.371094v-51.082032h102.371094zm0 0"/><path d="m346.699219 341.910156c4.144531 0 7.5-3.359375 7.5-7.5 0-4.144531-3.355469-7.503906-7.5-7.503906h-56.832031c-6.339844 0-11.5 5.160156-11.5 11.503906v58.082032c0 6.34375 5.160156 11.503906 11.5 11.503906h54.6875c4.140624 0 7.5-3.359375 7.5-7.503906 0-4.140626-3.359376-7.5-7.5-7.5h-51.1875v-51.082032zm0 0"/><path d="m476.882812 58.957031c-9.851562-16.757812-20.722656-30.855469-31.4375-40.777343-12.671874-11.730469-25.011718-17.679688-36.679687-17.679688-11.664063 0-24.007813 5.949219-36.679687 17.679688-10.710938 9.917968-21.585938 24.019531-31.4375 40.777343-26.910157 45.769531-45.953126 111.597657-28.234376 143.4375 6.472657 11.636719 19.925782 21.089844 38.90625 27.34375 14.339844 4.722657 31.835938 7.582031 49.945313 8.203125v16.613282c-14.085937 3.117187-24.902344 14.855468-26.457031 29.753906-.019532.125-.035156.253906-.046875.378906-.953125 10.121094-8.34375 88.515625-9.277344 98.417969l-.015625.140625c0 .007812-.007812.097656-.011719.105468l-.011719.132813c-.007812.082031-.011718.164063-.015624.246094-.117188 1.316406-.171876 2.566406-.171876 3.8125 0 23.992187 19.515626 43.507812 43.507813 43.507812s43.507813-19.515625 43.507813-43.507812c0-1.246094-.054688-2.496094-.171876-3.8125-.003906-.082031-.007812-.164063-.015624-.246094l-.023438-.222656c0-.027344-.003906-.054688-.007812-.078125 0-.027344-.003907-.058594-.003907-.070313l-9.28125-98.425781c-.015625-.132812-.03125-.269531-.050781-.398438-1.5625-14.890624-12.375-26.621093-26.453125-29.734374v-16.613282c18.105469-.621094 35.605469-3.480468 49.945313-8.203125 18.980468-6.253906 32.433593-15.707031 38.90625-27.34375 17.71875-31.839843-1.320313-97.667969-28.234376-143.4375zm-68.117187 357.09375c-15.71875 0-28.507813-12.789062-28.507813-28.507812 0-.859375.042969-1.738281.132813-2.6875.007813-.078125.015625-.160157.019531-.238281l4.757813-50.464844c7.675781 2.066406 15.578125 3.109375 23.597656 3.109375 8.023437 0 15.925781-1.042969 23.601563-3.109375l4.746093 50.351562c.003907.027344.007813.070313.011719.113282.003906.078124.011719.160156.019531.238281.089844.949219.132813 1.824219.132813 2.6875-.003906 15.71875-12.792969 28.507812-28.511719 28.507812zm22.167969-97.097656c-7.175782 2.195313-14.605469 3.308594-22.167969 3.308594-7.558594 0-14.988281-1.109375-22.164063-3.308594l.875-9.277344c13.675782 4.589844 28.90625 4.589844 42.582032 0zm-3.109375-32.863281c.011719.121094.027343.246094.046875.367187l.730468 7.765625c-6.269531 2.613282-12.921874 3.9375-19.835937 3.9375s-13.566406-1.324218-19.832031-3.9375l.730468-7.785156c.019532-.113281.03125-.230469.042969-.347656.921875-9.890625 9.117188-17.347656 19.058594-17.347656 9.945313 0 18.136719 7.457031 19.058594 17.347656zm64.1875-90.988282c-8.726563 15.683594-38.675781 26.539063-75.742188 27.835938v-16.273438c0-4.144531-3.359375-7.5-7.503906-7.5-4.140625 0-7.5 3.355469-7.5 7.5v16.273438c-37.066406-1.296875-67.015625-12.152344-75.742187-27.835938-6.363282-11.4375-6.765626-31.363281-1.128907-56.113281 5.382813-23.632812 16.019531-50.03125 29.191407-72.425781 18.515624-31.496094 39.660156-51.058594 55.183593-51.058594 15.519531 0 36.664063 19.5625 55.183594 51.058594 13.167969 22.394531 23.808594 48.792969 29.191406 72.425781 5.628907 24.75 5.230469 44.675781-1.132812 56.113281zm0 0"/></svg>