<svg height="512" viewBox="0 0 512 512" width="512" xmlns="http://www.w3.org/2000/svg"><g id="Outline"><path d="m72 120h16v16h-16z"/><path d="m104 120h16v16h-16z"/><path d="m72 152h16v16h-16z"/><path d="m184 216h16v16h-16z"/><path d="m184 248h16v16h-16z"/><path d="m152 216h16v16h-16z"/><path d="m152 248h16v16h-16z"/><path d="m72 184h16v16h-16z"/><path d="m72 216h16v16h-16z"/><path d="m72 248h16v16h-16z"/><path d="m256 288h-16v-88h8a8 8 0 0 0 8-8v-56a8 8 0 0 0 -9.315-7.891l-144 24a8 8 0 0 0 -6.685 7.891v32a8 8 0 0 0 8 8h8v88h-64v-192h96v32h16v-32h8a8 8 0 0 0 8-8v-48a8 8 0 0 0 -8.884-7.951l-144 16a8 8 0 0 0 -7.116 7.951v32a8 8 0 0 0 8 8h8v192h-16v16h240zm-224-224.84 128-14.222v31.062h-128zm80 103.617 128-21.333v38.556h-128zm16 33.223h96v88h-96z"/><path d="m464 168h-64v-56a32.036 32.036 0 0 0 -32-32h-176v16h148.305a31.793 31.793 0 0 0 -4.305 16v368h-264v-160h-16v168a8 8 0 0 0 8 8h280a8 8 0 0 0 8-8v-48h64a32.036 32.036 0 0 0 32-32v-64h40a8 8 0 0 0 8-8v-136a32.036 32.036 0 0 0 -32-32zm-112-56a16 16 0 0 1 32 0v296a31.793 31.793 0 0 0 4.305 16h-36.305zm80 296a16 16 0 0 1 -32 0v-224h36.305a31.793 31.793 0 0 0 -4.305 16zm48-80h-32v-128a16 16 0 0 1 32 0z"/><path d="m128 336h16v16h-16z"/><path d="m160 336h136v16h-136z"/><path d="m112 368h184v16h-184z"/><path d="m112 400h184v16h-184z"/><path d="m112 432h152v16h-152z"/><path d="m280 192h16v16h-16z"/><path d="m280 224h16v16h-16z"/><path d="m280 256h16v16h-16z"/><path d="m280 288h16v16h-16z"/></g></svg>