<?xml version="1.0" encoding="utf-8"?>
<!-- Generator: Adobe Illustrator 19.1.0, SVG Export Plug-In . SVG Version: 6.00 Build 0)  -->
<svg version="1.1" id="Layer_1" xmlns="http://www.w3.org/2000/svg" xmlns:xlink="http://www.w3.org/1999/xlink" x="0px" y="0px"
	 viewBox="0 0 64 64" enable-background="new 0 0 64 64" xml:space="preserve">
<g id="Ladder-up">
	<path d="M62.9999504,6.0156002h-12.044899c-0.5537033,0-1.0019035,0.4482999-1.0019035,1.0019999v12.5526991H38.5253487
		c-0.553688,0-1.0018997,0.4483013-1.0018997,1.0020008v10.3397999H25.8476582
		c-0.5537071,0-1.0019989,0.4482002-1.0019989,1.0020008V43.875H13.6611509c-0.5537004,0-1.0020008,0.4482002-1.0020008,1.0019989
		v11.1385994H0.9999508c-0.5537,0-1.0019,0.4483032-1.0019,1.0020027s0.4482,1.0018997,1.0019,1.0018997h12.6612005
		c0.5536995,0,1.0018997-0.4482002,1.0018997-1.0018997V45.8788986h11.1846075c0.5536919,0,1.0018921-0.4482002,1.0018921-1.0018997
		V32.9160004h11.6757984c0.5536995,0,1.0020027-0.4482002,1.0020027-1.0018997v-10.339901h11.4277
		c0.5536995,0,1.0019989-0.4482002,1.0019989-1.0018997V8.0194998h11.0429001c0.5537071,0,1.0019951-0.4481997,1.0019951-1.0018997
		S63.5536575,6.0156002,62.9999504,6.0156002z"/>
	<path d="M7.9999504,23.9824009c0.2470999,0,0.4941998-0.0947018,0.6817083-0.2822018L22.9628506,9.4188995v9.5986996
		c0,0.5732002,0.4638996,1.0371017,1.0370998,1.0371017c0.5732994,0,1.0370998-0.4639015,1.0370998-1.0371017V7.0176001
		c0-0.5732999-0.4638004-1.0370998-1.0370998-1.0370998h-12c-0.5732002,0-1.0370998,0.4638-1.0370998,1.0370998
		c0,0.5731997,0.4638996,1.0370998,1.0370998,1.0370998h9.5987091L7.3183508,22.3349991
		c-0.3770003,0.3769016-0.3770003,0.9882011-0.0010004,1.3642006C7.5058508,23.8876991,7.7529507,23.9824009,7.9999504,23.9824009z"
		/>
</g>
<g>
</g>
<g>
</g>
<g>
</g>
<g>
</g>
<g>
</g>
<g>
</g>
<g>
</g>
<g>
</g>
<g>
</g>
<g>
</g>
<g>
</g>
<g>
</g>
<g>
</g>
<g>
</g>
<g>
</g>
</svg>
