<svg id="icons" enable-background="new 0 0 64 64" height="512" viewBox="0 0 64 64" width="512" xmlns="http://www.w3.org/2000/svg"><g><g><path d="m62.999 57h-61.996c-.553 0-1-.447-1-1s.447-1 1-1h61.996c.553 0 1 .447 1 1s-.447 1-1 1z"/></g><g><path d="m62.999 57c-.553 0-1-.447-1-1v-31.012c0-.553.447-1 1-1s1 .447 1 1v31.012c0 .553-.447 1-1 1z"/></g><g><path d="m42.999 57c-.553 0-1-.447-1-1v-31.012c0-.553.447-1 1-1s1 .447 1 1v31.012c0 .553-.447 1-1 1z"/></g><g><path d="m21.001 57c-.553 0-1-.447-1-1v-31.012c0-.553.447-1 1-1s1 .447 1 1v31.012c0 .553-.447 1-1 1z"/></g><g><path d="m1.001 57c-.553 0-1-.447-1-1v-31.012c0-.553.447-1 1-1s1 .447 1 1v31.012c0 .553-.447 1-1 1z"/></g><g><path d="m62.999 25.988h-1.999c-.553 0-1-.447-1-1s.447-1 1-1h1.999c.553 0 1 .447 1 1s-.447 1-1 1z"/></g><g><path d="m3.001 25.988h-1.999c-.553 0-1-.447-1-1s.447-1 1-1h1.999c.553 0 1 .447 1 1s-.447 1-1 1z"/></g><g><path d="m45 25.988h-4.001c-.553 0-1-.447-1-1s.447-1 1-1h4.001c.553 0 1 .447 1 1s-.447 1-1 1z"/></g><g><path d="m23.003 25.988h-4.001c-.553 0-1-.447-1-1s.447-1 1-1h4.001c.553 0 1 .447 1 1s-.447 1-1 1z"/></g><g><g><g><path d="m47.002 48.994c-.553 0-1-.447-1-1v-16.984c0-.553.447-1 1-1s1 .447 1 1v16.984c0 .553-.447 1-1 1z"/></g><g><path d="m47.001 32.01c-.553 0-1-.447-1-1 0-1.654 1.347-3 3.001-3 .553 0 1 .447 1 1s-.447 1-1 1c-.552 0-1.001.448-1.001 1 0 .553-.447 1-1 1z"/></g><g><path d="m51.002 52.994c-1.336 0-2.592-.52-3.536-1.463-.944-.944-1.465-2.2-1.464-3.537 0-.553.448-1 1-1 .553 0 1 .448 1 1 0 .803.312 1.557.878 2.122.566.566 1.319.878 2.122.878.553 0 1 .447 1 1s-.447 1-1 1z"/></g></g><g><g><path d="m59 48.994c-.553 0-1-.447-1-1v-16.984c0-.553.447-1 1-1s1 .447 1 1v16.984c0 .553-.447 1-1 1z"/></g><g><path d="m59 32.01c-.553 0-1-.447-1-1 0-.552-.448-1-1-1-.553 0-1-.447-1-1s.447-1 1-1c1.654 0 3 1.346 3 3 0 .553-.447 1-1 1z"/></g><g><path d="m54.999 52.994c-.553 0-1-.447-1-1s.447-1 1-1c1.654 0 3.001-1.346 3.001-3 0-.553.447-1 1-1s1 .447 1 1c0 2.757-2.243 5-5.001 5z"/></g></g><g><path d="m57 30.01h-7.998c-.553 0-1-.447-1-1s.447-1 1-1h7.998c.553 0 1 .447 1 1s-.447 1-1 1z"/></g><g><path d="m56.02 42.998c-.005.001-.013 0-.02 0h-5.999c-.266 0-.52-.105-.707-.293s-.293-.442-.293-.707l.001-8.99c0-.553.448-1 1-1h5.997c.552 0 1 .447 1 1l.001 8.79c.013.064.02.132.02.2 0 .553-.448 1-1 1zm-5.019-2h3.999l-.001-6.99h-3.997z"/></g><g><path d="m57 45.998c-.419 0-.809-.265-.948-.684l-1-3c-.175-.524.108-1.091.632-1.265.527-.176 1.091.108 1.265.632l1 3c.175.524-.108 1.091-.632 1.265-.106.035-.213.052-.317.052z"/></g><g><path d="m49.001 45.998c-.104 0-.211-.017-.316-.052-.523-.174-.807-.74-.632-1.265l1-3c.175-.523.735-.808 1.265-.632.523.174.807.74.632 1.265l-1 3c-.14.419-.53.684-.949.684z"/></g><g><path d="m53 46.998c-2.433-.001-3.887-.334-4.579-1.048-.394-.407-.425-.823-.419-.983.017-.541.461-.969.998-.969.011 0 .021 0 .032.001.396.012.731.253.883.592.204.109.956.406 3.085.407 2.13 0 2.882-.297 3.086-.406.151-.34.486-.581.883-.593.011-.001.021-.001.032-.001.537 0 .981.428.998.969.006.16-.025.577-.42.984-.692.714-2.147 1.047-4.579 1.047z"/></g><g><path d="m54.999 52.994h-3.997c-.553 0-1-.447-1-1s.447-1 1-1h3.997c.553 0 1 .447 1 1s-.447 1-1 1z"/></g><g><path d="m60 42.998h-1c-.553 0-1-.447-1-1s.447-1 1-1h1c.553 0 1 .447 1 1s-.447 1-1 1z"/></g><g><path d="m47.001 42.998h-1c-.553 0-1-.447-1-1s.447-1 1-1h1c.553 0 1 .447 1 1s-.447 1-1 1z"/></g><g><path d="m50.003 34.008c-.323 0-.641-.156-.833-.445l-2.297-3.443c-.307-.459-.183-1.08.277-1.387.457-.306 1.08-.183 1.387.277l2.297 3.443c.307.459.183 1.08-.277 1.387-.17.113-.364.168-.554.168z"/></g><g><path d="m55.999 34.006c-.19 0-.384-.055-.554-.168-.46-.307-.584-.928-.277-1.387l2.297-3.441c.307-.46.928-.583 1.387-.277.46.307.584.928.277 1.387l-2.297 3.441c-.193.289-.51.445-.833.445z"/></g></g><g><g><g><path d="m26.001 27.984c-.553 0-1-.447-1-1v-16.984c0-.553.447-1 1-1s1 .447 1 1v16.984c0 .553-.447 1-1 1z"/></g><g><path d="m26 10.998c-.553 0-1-.447-1-1 0-1.653 1.347-2.998 3.001-2.998.553 0 1 .447 1 1s-.447 1-1 1c-.552 0-1.001.447-1.001.998 0 .553-.447 1-1 1z"/></g><g><path d="m30.001 31.984c-1.336 0-2.592-.52-3.536-1.464s-1.465-2.2-1.464-3.536c0-.553.448-1 1-1 .553 0 1 .448 1 1 0 .802.312 1.556.878 2.122s1.32.878 2.122.878c.553 0 1 .447 1 1s-.447 1-1 1z"/></g></g><g><g><path d="m37.999 27.984c-.553 0-1-.447-1-1v-16.986c0-.553.447-1 1-1s1 .447 1 1v16.986c0 .553-.447 1-1 1z"/></g><g><path d="m37.999 10.998c-.553 0-1-.447-1-1 0-.551-.448-.998-1-.998-.553 0-1-.447-1-1s.447-1 1-1c1.654 0 3 1.345 3 2.998 0 .553-.447 1-1 1z"/></g><g><path d="m33.998 31.984c-.553 0-1-.447-1-1s.447-1 1-1c1.654 0 3.001-1.346 3.001-3 0-.553.447-1 1-1s1 .447 1 1c0 2.757-2.243 5-5.001 5z"/></g></g><g><path d="m35.999 9h-7.998c-.553 0-1-.447-1-1s.447-1 1-1h7.998c.553 0 1 .447 1 1s-.447 1-1 1z"/></g><g><path d="m29 21.988c-.266 0-.52-.105-.707-.293s-.293-.441-.293-.707l.001-8.99c0-.553.448-1 1-1h5.997c.552 0 1 .447 1 1l.001 8.988c0 .552-.447 1-1 1zm1.001-8.99-.001 6.99 3.999-.002-.001-6.988z"/></g><g><path d="m35.999 24.986c-.419 0-.809-.265-.948-.684l-1-3c-.175-.524.108-1.091.632-1.265.527-.175 1.091.108 1.265.632l1 3c.175.524-.108 1.091-.632 1.265-.106.036-.212.052-.317.052z"/></g><g><path d="m28 24.986c-.104 0-.211-.017-.316-.052-.523-.175-.807-.741-.632-1.265l1-2.998c.175-.523.735-.809 1.265-.632.523.175.807.741.632 1.265l-1 2.998c-.14.42-.53.684-.949.684z"/></g><g><path d="m31.999 25.986c-2.431 0-3.886-.333-4.578-1.047-.395-.407-.426-.824-.42-.984.018-.552.48-1.003 1.03-.968.396.012.731.253.883.593.204.109.955.406 3.085.406s2.882-.297 3.086-.406c.151-.34.486-.581.883-.593.532-.031 1.014.416 1.031.968.005.16-.026.577-.421.984-.692.714-2.147 1.047-4.579 1.047z"/></g><g><path d="m33.998 31.984h-3.997c-.553 0-1-.447-1-1s.447-1 1-1h3.997c.553 0 1 .447 1 1s-.447 1-1 1z"/></g><g><path d="m38.999 21.986h-1c-.553 0-1-.447-1-1s.447-1 1-1h1c.553 0 1 .447 1 1s-.447 1-1 1z"/></g><g><path d="m26 21.986h-1c-.553 0-1-.447-1-1s.447-1 1-1h1c.553 0 1 .447 1 1s-.447 1-1 1z"/></g><g><path d="m29.002 12.998c-.323 0-.641-.156-.833-.445l-2.297-3.445c-.307-.46-.183-1.08.277-1.387.46-.306 1.08-.182 1.387.277l2.297 3.445c.307.46.183 1.08-.277 1.387-.171.113-.364.168-.554.168z"/></g><g><path d="m34.998 12.996c-.19 0-.384-.055-.554-.168-.46-.307-.584-.928-.277-1.387l2.297-3.443c.306-.459.927-.583 1.387-.277.46.307.584.928.277 1.387l-2.297 3.443c-.192.289-.51.445-.833.445z"/></g></g><g><g><g><path d="m5.004 48.994c-.553 0-1-.447-1-1v-16.984c0-.553.447-1 1-1s1 .447 1 1v16.984c0 .553-.447 1-1 1z"/></g><g><path d="m5.003 32.01c-.553 0-1-.447-1-1 0-1.654 1.347-3 3.001-3 .553 0 1 .447 1 1s-.447 1-1 1c-.552 0-1.001.448-1.001 1 0 .553-.447 1-1 1z"/></g><g><path d="m9.004 52.994c-1.336 0-2.592-.52-3.536-1.463-.944-.944-1.465-2.2-1.464-3.537 0-.553.448-1 1-1 .553 0 1 .448 1 1 0 .803.312 1.557.878 2.122.566.566 1.319.878 2.122.878.553 0 1 .447 1 1s-.447 1-1 1z"/></g></g><g><g><path d="m17.002 48.994c-.553 0-1-.447-1-1v-16.984c0-.553.447-1 1-1s1 .447 1 1v16.984c0 .553-.447 1-1 1z"/></g><g><path d="m17.002 32.01c-.553 0-1-.447-1-1 0-.552-.448-1-1-1-.553 0-1-.447-1-1s.447-1 1-1c1.654 0 3 1.346 3 3 0 .553-.447 1-1 1z"/></g><g><path d="m13.001 52.994c-.553 0-1-.447-1-1s.447-1 1-1c1.654 0 3.001-1.346 3.001-3 0-.553.447-1 1-1s1 .447 1 1c0 2.757-2.243 5-5.001 5z"/></g></g><g><path d="m15.002 30.01h-7.998c-.553 0-1-.447-1-1s.447-1 1-1h7.998c.553 0 1 .447 1 1s-.447 1-1 1z"/></g><g><path d="m14.021 42.998c-.004.001-.012 0-.02 0h-5.998c-.266 0-.52-.105-.707-.293s-.293-.442-.293-.707l.001-8.99c0-.553.448-1 1-1h5.997c.552 0 1 .447 1 1l.001 8.79c.013.064.02.132.02.2-.001.553-.448 1-1.001 1zm-5.018-2h3.999l-.001-6.99h-3.997z"/></g><g><path d="m15.002 45.998c-.419 0-.809-.265-.948-.684l-1-3c-.175-.524.108-1.091.632-1.265.528-.176 1.09.108 1.265.632l1 3c.175.524-.108 1.091-.632 1.265-.106.035-.213.052-.317.052z"/></g><g><path d="m7.003 45.998c-.104 0-.211-.017-.316-.052-.523-.174-.807-.74-.632-1.265l1-3c.175-.523.736-.808 1.265-.632.523.174.807.74.632 1.265l-1 3c-.14.419-.53.684-.949.684z"/></g><g><path d="m11.002 46.998c-2.433-.001-3.887-.334-4.579-1.048-.394-.407-.425-.823-.419-.983.017-.541.461-.969.998-.969.011 0 .021 0 .032.001.396.012.731.253.883.592.204.109.956.406 3.085.407 2.13 0 2.882-.297 3.086-.406.151-.34.486-.581.883-.593.011-.001.021-.001.032-.001.537 0 .981.428.998.969.006.16-.025.577-.42.984-.692.714-2.147 1.047-4.579 1.047z"/></g><g><path d="m13.001 52.994h-3.997c-.553 0-1-.447-1-1s.447-1 1-1h3.997c.553 0 1 .447 1 1s-.447 1-1 1z"/></g><g><path d="m18.002 42.998h-1c-.553 0-1-.447-1-1s.447-1 1-1h1c.553 0 1 .447 1 1s-.447 1-1 1z"/></g><g><path d="m5.003 42.998h-1c-.553 0-1-.447-1-1s.447-1 1-1h1c.553 0 1 .447 1 1s-.447 1-1 1z"/></g><g><path d="m8.005 34.008c-.323 0-.641-.156-.833-.445l-2.297-3.443c-.307-.459-.183-1.08.277-1.387.458-.306 1.08-.183 1.387.277l2.297 3.443c.307.459.183 1.08-.277 1.387-.17.113-.364.168-.554.168z"/></g><g><path d="m14.001 34.006c-.19 0-.384-.055-.554-.168-.46-.307-.584-.928-.277-1.387l2.297-3.441c.307-.46.929-.583 1.387-.277.46.307.584.928.277 1.387l-2.297 3.441c-.193.289-.51.445-.833.445z"/></g></g><g><path d="m32 52.996c-.553 0-1-.447-1-1v-17.004c0-.553.447-1 1-1s1 .447 1 1v17.004c0 .553-.447 1-1 1z"/></g><g><path d="m32 52.996c-.256 0-.512-.098-.707-.293-.391-.391-.391-1.023 0-1.414l2-2c.391-.391 1.023-.391 1.414 0s.391 1.023 0 1.414l-2 2c-.195.195-.451.293-.707.293z"/></g><g><path d="m32 52.996c-.256 0-.512-.098-.707-.293l-2-2c-.391-.391-.391-1.023 0-1.414s1.023-.391 1.414 0l2 2c.391.391.391 1.023 0 1.414-.195.195-.451.293-.707.293z"/></g></g></svg>