<svg id="Layer_1" enable-background="new 0 0 512 512" height="512" viewBox="0 0 512 512" width="512" xmlns="http://www.w3.org/2000/svg"><g><path d="m504.5 171.346c4.143 0 7.5-3.357 7.5-7.5v-42.691c0-2.446-1.193-4.739-3.197-6.143s-4.566-1.743-6.866-.906c-35.95 13.073-80.523 20.569-125.508 21.107-43.217.493-82.922-5.658-108.945-16.939-.036-.016-.072-.031-.108-.046-52.916-21.965-110.334-29.88-170.599-23.538-33.24 3.217-63.243 9.554-91.723 19.375-3.024 1.043-5.054 3.89-5.054 7.09v269.242c0 2.425 1.172 4.699 3.146 6.106 1.973 1.408 4.506 1.775 6.799.983 27.35-9.431 56.226-15.523 88.34-18.631 57.788-6.083 112.726 1.471 163.288 22.446 28.018 12.133 67.47 18.126 109.36 18.126 46.505 0 96.008-7.394 136.13-21.982 2.964-1.078 4.937-3.896 4.937-7.049v-192.074c0-4.143-3.357-7.5-7.5-7.5s-7.5 3.357-7.5 7.5v186.768c-35.052 11.996-77.624 18.852-120.571 19.365-43.205.527-82.921-5.656-108.945-16.939-.036-.016-.072-.031-.108-.046-52.915-21.965-110.333-29.88-170.598-23.538-29.396 2.845-56.26 8.13-81.777 16.106v-253.493c25.853-8.468 53.143-14.015 83.285-16.932 57.789-6.085 112.726 1.468 163.29 22.447 56.572 24.497 159.812 23.974 235.425-.41v32.195c-.001 4.144 3.356 7.501 7.499 7.501z"/><path d="m469.5 340.592c4.143 0 7.5-3.357 7.5-7.5v-134.049c0-4.143-3.357-7.5-7.5-7.5-11.717 0-21.704-8.355-23.746-19.867-.707-3.98-4.441-6.68-8.443-6.114-68.883 9.818-139.192 4.047-183.494-15.066-.033-.015-.067-.028-.102-.043-47.394-19.622-98.985-26.67-153.371-20.945l-.195.02c-9.572.926-18.973 2.15-27.939 3.64-2.018.335-3.812 1.479-4.965 3.169-1.154 1.689-1.567 3.777-1.145 5.778.345 1.635.52 3.318.52 5.005 0 13.299-10.819 24.118-24.119 24.118-4.143 0-7.5 3.357-7.5 7.5v71.292c0 4.143 3.357 7.5 7.5 7.5s7.5-3.357 7.5-7.5v-64.514c17.994-3.508 31.619-19.392 31.619-38.396 0-.08 0-.161-.001-.241 6.494-.952 13.176-1.763 19.925-2.416l.406-.04c51.815-5.458 100.935 1.23 145.981 19.871 45.275 19.512 115.628 25.915 184.974 17.003 4.774 12.66 15.809 21.957 29.096 24.531v120.487c-17.994 3.508-31.619 19.392-31.619 38.397 0 .135.001.27.002.405-17.701 2.662-35.957 4.121-54.372 4.342-38.478.452-72.957-4.668-94.61-14.057l-.607-.258c-45.291-18.8-93.783-28.332-144.13-28.332-14.279 0-28.904.774-43.408 2.297-4.737.46-9.463.985-14.116 1.568-4.75-12.723-15.805-22.065-29.141-24.644v-20.987c0-4.143-3.357-7.5-7.5-7.5s-7.5 3.357-7.5 7.5v27.771c0 4.143 3.357 7.5 7.5 7.5 11.753 0 21.745 8.386 23.759 19.94.694 3.983 4.421 6.694 8.424 6.141 6.521-.909 13.257-1.702 20.079-2.365 14.045-1.474 28.143-2.221 41.901-2.221 48.363 0 94.921 9.146 138.373 27.183l.402.171c22.582 9.792 57.338 15.32 95.937 15.32 1.598 0 3.204-.01 4.814-.029 21.615-.258 43.032-2.164 63.655-5.664 2.018-.343 3.808-1.494 4.955-3.188s1.553-3.784 1.122-5.784c-.359-1.668-.541-3.387-.541-5.108.001-13.301 10.82-24.121 24.12-24.121z"/><path d="m212.698 273.264c-4.143 0-7.5 3.357-7.5 7.5s3.357 7.5 7.5 7.5h12.255v15.3c0 4.143 3.357 7.5 7.5 7.5s7.5-3.357 7.5-7.5v-15.3h38.594c4.143 0 7.5-3.357 7.5-7.5s-3.357-7.5-7.5-7.5h-38.594v-14.509h38.594c15.028 0 27.255-12.227 27.255-27.255s-12.227-27.255-27.255-27.255h-46.094c-4.143 0-7.5 3.357-7.5 7.5v32.01h-12.255c-4.143 0-7.5 3.357-7.5 7.5s3.357 7.5 7.5 7.5h12.255v14.509zm27.255-54.018h38.594c6.758 0 12.255 5.497 12.255 12.255s-5.497 12.255-12.255 12.255h-38.594z"/><path d="m161.214 232.714c0-15.278-12.43-27.708-27.708-27.708s-27.708 12.43-27.708 27.708 12.43 27.708 27.708 27.708 27.708-12.429 27.708-27.708zm-40.416 0c0-7.007 5.701-12.708 12.708-12.708s12.708 5.701 12.708 12.708-5.701 12.708-12.708 12.708-12.708-5.701-12.708-12.708z"/><path d="m405.202 279.35c0-15.278-12.43-27.708-27.708-27.708s-27.708 12.43-27.708 27.708 12.43 27.708 27.708 27.708 27.708-12.43 27.708-27.708zm-40.416 0c0-7.007 5.701-12.708 12.708-12.708s12.708 5.701 12.708 12.708-5.701 12.708-12.708 12.708-12.708-5.701-12.708-12.708z"/></g></svg>