<svg id="Capa_1" enable-background="new 0 0 512.007 512.007" height="512" viewBox="0 0 512.007 512.007" width="512" xmlns="http://www.w3.org/2000/svg"><g><path d="m456.409 0h-400.811c-12.975 0-23.532 10.557-23.532 23.532v460.256c0 11.116 6.269 20.916 16.361 25.577 10.091 4.66 21.618 3.078 30.08-4.131l177.497-151.201 177.496 151.201c5.243 4.466 11.662 6.773 18.188 6.773 4.006 0 8.053-.869 11.892-2.642 10.092-4.661 16.361-14.46 16.361-25.577v-460.256c0-12.975-10.557-23.532-23.532-23.532zm8.532 483.788c0 5.276-2.86 9.747-7.65 11.958-4.788 2.211-10.046 1.491-14.064-1.931l-182.36-155.344c-1.401-1.194-3.132-1.791-4.863-1.791s-3.462.597-4.863 1.791l-182.361 155.344c-4.017 3.422-9.275 4.144-14.064 1.931-4.79-2.212-7.65-6.682-7.65-11.958v-460.256c0-4.705 3.828-8.532 8.532-8.532h8.533v64.646c0 4.143 3.358 7.5 7.5 7.5s7.5-3.357 7.5-7.5v-64.646h353.745v313.148c0 4.142 3.358 7.5 7.5 7.5s7.5-3.358 7.5-7.5v-313.148h8.533c4.705 0 8.532 3.828 8.532 8.532z"/><path d="m440.376 352.713c-4.142 0-7.5 3.358-7.5 7.5v82.662l-151.216-128.812c-7.148-6.093-16.26-9.448-25.657-9.448s-18.508 3.355-25.655 9.447l-151.217 128.813v-331.164c0-4.143-3.358-7.5-7.5-7.5s-7.5 3.357-7.5 7.5v347.405c0 2.925 1.7 5.583 4.355 6.809 2.657 1.227 5.782.797 8.008-1.1l163.582-139.345c4.437-3.782 10.094-5.864 15.927-5.864s11.49 2.083 15.929 5.866l163.581 139.344c1.384 1.179 3.115 1.791 4.865 1.791 1.065 0 2.138-.227 3.143-.691 2.655-1.226 4.355-3.884 4.355-6.809v-98.903c0-4.143-3.358-7.501-7.5-7.501z"/></g></svg>