<svg height="512pt" viewBox="0 0 512 512.00303" width="512pt" xmlns="http://www.w3.org/2000/svg"><path d="m505.996094 440.5c-8.691406-24.277344-26.199219-50.371094-49.296875-73.472656-12.925781-12.925782-27.082031-24.324219-41.296875-33.285156 4.371094-10.214844 3.308594-18.683594-3.246094-25.238282-6.761719-6.761718-17.144531-8.703125-29.464844-5.9375 42.683594-77.53125 31.210938-177.144531-34.433594-242.792968-26.980468-26.980469-60.789062-45.796876-97.765624-54.421876-35.957032-8.382812-73.527344-6.894531-108.65625 4.296876-4 1.277343-6.210938 5.554687-4.9375 9.558593 1.277343 4 5.558593 6.210938 9.554687 4.9375 67.667969-21.566406 140.871094-3.792969 191.046875 46.382813 73.632812 73.632812 73.632812 193.441406 0 267.074218-73.628906 73.632813-193.441406 73.632813-267.070312 0-73.632813-73.628906-73.632813-193.4375-.003907-267.070312 14.375-14.371094 30.777344-26.238281 48.757813-35.273438 3.75-1.886718 5.265625-6.457031 3.378906-10.210937s-6.457031-5.265625-10.207031-3.378906c-19.4375 9.765625-37.160157 22.585937-52.683594 38.105469-79.5625 79.566406-79.5625 209.023437 0 288.585937 39.78125 39.78125 92.039063 59.671875 144.292969 59.671875 33.976562 0 67.953125-8.417969 98.5-25.238281-2.765625 12.324219-.824219 22.707031 5.933594 29.46875 3.933593 3.929687 8.546874 5.894531 13.816406 5.894531 3.523437 0 7.339844-.886719 11.4375-2.640625 8.960937 14.207031 20.359375 28.363281 33.28125 41.28125 1.484375 1.484375 3.429687 2.226563 5.375 2.226563 1.945312 0 3.894531-.742188 5.378906-2.226563 2.96875-2.96875 2.96875-7.785156 0-10.753906-12.046875-12.046875-22.652344-25.1875-30.980469-38.347657 9.875-7.335937 20.703125-17.929687 31.832031-29.058593 11.132813-11.128907 21.722657-21.957031 29.058594-31.832031 13.160156 8.328124 26.300782 18.9375 38.34375 30.980468 21.542969 21.542969 37.785156 45.636719 45.734375 67.84375 7.167969 20.023438 6.558594 36.234375-1.679687 44.46875-14.933594 14.933594-54.40625 3.851563-91.820313-25.773437-3.289062-2.605469-8.074219-2.046875-10.683593 1.242187-2.605469 3.292969-2.050782 8.078125 1.242187 10.683594 20.722656 16.410156 42.785156 28.148438 62.125 33.058594 7.097656 1.800781 13.722656 2.695312 19.8125 2.695312 12.464844 0 22.679687-3.75 30.082031-11.152344 12.746094-12.75 14.609375-34.179687 5.242188-60.351562zm-138.214844-72.617188c-11.644531 11.644532-23.832031 23.558594-33.59375 30.035157-.386719.253906-.886719.585937-1.460938.949219-.023437.011718-.046874.023437-.070312.039062-.128906.074219-.246094.15625-.367188.238281-3.65625 2.265625-9.957031 5.535157-13.132812 2.359375-5.0625-5.058594-2.984375-18.144531 5.144531-32.617187 8.378907-6.125 16.394531-12.964844 23.957031-20.527344s14.402344-15.578125 20.527344-23.960937c14.472656-8.125 27.554688-10.199219 32.617188-5.136719 1.046875 1.046875 3.839844 3.835937-3.585938 15.027343-6.476562 9.761719-18.390625 21.949219-30.035156 33.59375zm0 0"/><path d="m146.433594 237.167969c4.199218 0 7.605468-3.40625 7.605468-7.605469v-22.308594c0-4.203125-3.40625-7.605468-7.605468-7.605468-4.203125 0-7.605469 3.402343-7.605469 7.605468v22.308594c0 4.199219 3.402344 7.605469 7.605469 7.605469zm0 0"/><path d="m124.125 237.167969c4.199219 0 7.605469-3.40625 7.605469-7.605469v-22.308594c0-4.203125-3.40625-7.605468-7.605469-7.605468-4.203125 0-7.605469 3.402343-7.605469 7.605468v22.308594c0 4.199219 3.402344 7.605469 7.605469 7.605469zm0 0"/><path d="m146.433594 295.980469c4.199218 0 7.605468-3.40625 7.605468-7.605469v-22.308594c0-4.199218-3.40625-7.605468-7.605468-7.605468-4.203125 0-7.605469 3.40625-7.605469 7.605468v22.308594c0 4.199219 3.402344 7.605469 7.605469 7.605469zm0 0"/><path d="m124.125 295.980469c4.199219 0 7.605469-3.40625 7.605469-7.605469v-22.308594c0-4.199218-3.40625-7.605468-7.605469-7.605468-4.203125 0-7.605469 3.40625-7.605469 7.605468v22.308594c0 4.199219 3.402344 7.605469 7.605469 7.605469zm0 0"/><path d="m227.476562 149.960938c-4.199218 0-7.605468 3.40625-7.605468 7.605468v22.308594c0 4.199219 3.40625 7.605469 7.605468 7.605469 4.203126 0 7.605469-3.40625 7.605469-7.605469v-22.308594c0-4.203125-3.40625-7.605468-7.605469-7.605468zm0 0"/><path d="m197.058594 149.960938c-4.203125 0-7.605469 3.40625-7.605469 7.605468v22.308594c0 4.199219 3.402344 7.605469 7.605469 7.605469 4.199218 0 7.601562-3.40625 7.601562-7.605469v-22.308594c0-4.203125-3.402344-7.605468-7.601562-7.605468zm0 0"/><path d="m227.476562 198.632812c-4.199218 0-7.605468 3.40625-7.605468 7.605469v22.308594c0 4.199219 3.40625 7.605469 7.605468 7.605469 4.203126 0 7.605469-3.40625 7.605469-7.605469v-22.308594c0-4.199219-3.40625-7.605469-7.605469-7.605469zm0 0"/><path d="m197.058594 198.632812c-4.203125 0-7.605469 3.40625-7.605469 7.605469v22.308594c0 4.199219 3.402344 7.605469 7.605469 7.605469 4.199218 0 7.601562-3.40625 7.601562-7.605469v-22.308594c0-4.199219-3.402344-7.605469-7.601562-7.605469zm0 0"/><path d="m227.476562 247.304688c-4.199218 0-7.605468 3.40625-7.605468 7.605468v22.308594c0 4.199219 3.40625 7.605469 7.605468 7.605469 4.203126 0 7.605469-3.40625 7.605469-7.605469v-22.308594c0-4.199218-3.40625-7.605468-7.605469-7.605468zm0 0"/><path d="m197.058594 247.304688c-4.203125 0-7.605469 3.40625-7.605469 7.605468v22.308594c0 4.199219 3.402344 7.605469 7.605469 7.605469 4.199218 0 7.601562-3.40625 7.601562-7.605469v-22.308594c0-4.199218-3.402344-7.605468-7.601562-7.605468zm0 0"/><path d="m227.476562 295.980469c-4.199218 0-7.605468 3.402343-7.605468 7.605469v22.304687c0 4.203125 3.40625 7.605469 7.605468 7.605469 4.203126 0 7.605469-3.402344 7.605469-7.605469v-22.304687c0-4.203126-3.40625-7.605469-7.605469-7.605469zm0 0"/><path d="m197.058594 295.980469c-4.203125 0-7.605469 3.402343-7.605469 7.605469v22.304687c0 4.203125 3.402344 7.605469 7.605469 7.605469 4.199218 0 7.601562-3.402344 7.601562-7.605469v-22.304687c0-4.203126-3.402344-7.605469-7.601562-7.605469zm0 0"/><path d="m47.359375 204.066406c0 41.832032 16.289063 81.160156 45.867187 110.738282 29.578126 29.578124 68.90625 45.867187 110.738282 45.867187 41.832031 0 81.15625-16.289063 110.738281-45.867187 29.578125-29.578126 45.867187-68.90625 45.867187-110.738282 0-41.832031-16.289062-81.15625-45.867187-110.738281-29.582031-29.578125-68.90625-45.867187-110.738281-45.867187-41.832032 0-81.160156 16.289062-110.738282 45.867187-29.578124 29.582031-45.867187 68.90625-45.867187 110.738281zm119.09375-13.859375v150.25c-23.347656-6.382812-44.753906-18.734375-62.351563-36.292969v-113.957031zm15.210937 153.507813v-161.113282c0-4.199218-3.402343-7.605468-7.605468-7.605468h-18.253906v-51.714844h97.347656v213.417969c-15.535156 5.753906-32.128906 8.765625-49.1875 8.765625-7.542969 0-14.992188-.597656-22.300782-1.75zm86.699219-112.441406h35.46875v72.886718c-10.582031 10.558594-22.539062 19.226563-35.46875 25.855469zm-64.398437-168.601563c37.765625 0 73.273437 14.707031 99.980468 41.414063 26.707032 26.707031 41.414063 62.214843 41.414063 99.980468 0 29.902344-9.222656 58.378906-26.316406 82.199219v-62.597656c0-4.199219-3.402344-7.601563-7.605469-7.601563h-43.074219v-100.390625c0-4.199219-3.402343-7.605469-7.605469-7.605469h-112.554687c-4.203125 0-7.605469 3.40625-7.605469 7.605469v59.320313h-44.101562c-4.199219 0-7.601563 3.40625-7.601563 7.605468v103.671876c-17.097656-23.820313-26.324219-52.304688-26.324219-82.207032 0-37.765625 14.707032-73.273437 41.414063-99.980468 26.703125-26.707032 62.210937-41.414063 99.980469-41.414063zm0 0"/></svg>