<svg id="Layer_5" enable-background="new 0 0 64 64" height="512" viewBox="0 0 64 64" width="512" xmlns="http://www.w3.org/2000/svg"><path d="m61 53v-2c0-2.34-1.193-4.52-3.126-5.813-.816-6.538-5.957-11.923-12.612-12.874l-8.455-1.208-.57-2.279c1.497-.385 2.727-1.434 3.339-2.826h.424c2.206 0 4-1.794 4-4v-5c1.103 0 2-.897 2-2v-2c0-1.103-.897-2-2-2h-.174c-.957-5.76-5.883-10-11.826-10s-10.869 4.24-11.826 10h-.174c-1.103 0-2 .897-2 2v2c0 1.103.897 2 2 2v5c0 2.206 1.794 4 4 4h.424c.611 1.392 1.842 2.441 3.339 2.826l-.557 2.228-12.206.872v-8.512l.856-.856c.738-.738 1.144-1.718 1.144-2.762 0-1.449-.783-2.755-2.052-3.438-.193-1.182-.915-2.213-1.948-2.813v-.729c1.161-.414 2-1.514 2-2.816v-1.528c0-3.14-1.745-5.963-4.553-7.367l-.447-.223-.447.223c-2.808 1.404-4.553 4.227-4.553 7.367v1.528c0 1.302.839 2.402 2 2.816v6.184 16c0 3.309 2.691 6 6 6h7.361l.596 14h-.957-1v-6h-3-1v-6h-14v20h44v-6.764l2.553 5.106c.511 1.023 1.54 1.658 2.683 1.658h7.528c1.143 0 2.171-.635 2.683-1.658l2.553-5.106v-3.236zm-2-2v2h-10v-2c0-1.093.364-2.139 1.001-2.992.004 1.651 1.348 2.992 2.999 2.992h2c1.652 0 2.995-1.341 2.999-2.992.637.853 1.001 1.899 1.001 2.992zm-7-4c0-1.103.897-2 2-2s2 .897 2 2v1c0 .551-.449 1-1 1h-2c-.551 0-1-.449-1-1zm3.431-3.724c-.446-.172-.925-.276-1.431-.276-.973 0-1.855.363-2.549.943-1.126-3.053-3.891-5.332-7.298-5.711l-.378-.042.176-4.045 1.028.147c5.007.716 9.024 4.334 10.452 8.984zm-19.389 11.724.333-8h5.015l-.348 8zm-27.042-4v4h-6v-4zm4 6v4h-4v-4zm2 0h2 2v4h-4zm6 0h4v4h-4zm6 0h4v4h-4zm-4.552-14h5.01l.083 2h-5.008zm11.771-14 .691 2.762-2.91 3.637-2.91-3.637.691-2.762zm7.258 16h-5.018l.083-2h5.022zm-6.741-6.678-1.396-1.396 1.534-1.918zm1.89 2.678.083-2h5.029l-.087 2zm5.199-4h-5.033l.161-3.854 5.009.715zm-12.699-1.992 1.534 1.918-1.396 1.396zm-1.918 1.992h-5.015l-.152-3.572 5.004-.357zm-4.931 2h5.013l.083 2h-5.012zm7.1 2.037 2.623-2.623 2.623 2.623-.582 13.963h-4.082zm3.623 15.963h4v4h-4zm7-33v-4c1.103 0 2 .897 2 2s-.897 2-2 2zm2-5.444c-.591-.344-1.268-.556-2-.556v-1h2zm-.204-7.556h-6.796v-7.542c3.435 1.065 6.07 3.914 6.796 7.542zm-8.796-7.95v7.95h-2v-7.95c.329-.032.662-.05 1-.05s.671.018 1 .05zm-4 .408v7.542h-6.796c.726-3.628 3.361-6.477 6.796-7.542zm-9.001 9.542h.001 24v2h-24zm4.001 4v1c-.732 0-1.409.212-2 .556v-1.556zm-2 5c0-1.103.897-2 2-2v4c-1.103 0-2-.897-2-2zm4 2v-7h12v7c0 1.654-1.346 3-3 3h-6c-1.654 0-3-1.346-3-3zm-19-15.528c0-2.206 1.137-4.206 3-5.332 1.863 1.126 3 3.125 3 5.332v1.528c0 .551-.449 1-1 1h-4c-.551 0-1-.449-1-1zm2 4.528h2v6c0 .551-.449 1-1 1s-1-.449-1-1zm4 26c-2.206 0-4-1.794-4-4v-13.184c.314.112.648.184 1 .184 1.654 0 3-1.346 3-3v-1.382l.946.473c.65.325 1.054.978 1.054 1.705 0 .501-.204.993-.558 1.348l-1.442 1.442v10l-1.707 1.707 1.414 1.414 1.736-1.736 5.602-.4.231 5.429zm9.618 8h5.006l.333 8h-4.999zm-6.618 4h1v4h-6v-4h2zm-3-2h-4v-4h4zm-6-4v4h-4v-4zm-4 12h4v4h-4zm40 4h-4v-4h4zm2-6h-1.956l.644-14.806.244.027c2.913.324 5.215 2.444 5.872 5.183-1.745 1.312-2.804 3.385-2.804 5.596v2h-2zm16 .764-2.342 4.683c-.17.341-.513.553-.894.553h-7.528c-.381 0-.724-.212-.894-.553l-2.342-4.683v-.764h14z"/></svg>